<svg xmlns="http://www.w3.org/2000/svg" xmlns:xlink="http://www.w3.org/1999/xlink" contentStyleType="text/css" data-diagram-type="CLASS" height="1867px" preserveAspectRatio="none" style="width:879px;height:1867px;background:#FFFFFF;" version="1.1" viewBox="0 0 879 1867" width="879px" zoomAndPan="magnify"><title>Reference 02: Core Data Contracts full field map</title><defs/><g><g class="title" data-source-line="2"><text fill="#000000" font-family="Arial" font-size="14" font-weight="bold" lengthAdjust="spacing" textLength="321.3096" x="275.0952" y="23.1318">Reference 02: Core Data Contracts full field map</text></g><!--class Document--><g class="entity" data-entity="Document" data-source-line="9" data-uid="ent0002" id="entity_Document"><rect fill="#F1F1F1" height="104.1934" rx="2.5" ry="2.5" style="stroke:#181818;stroke-width:0.5;" width="144.6992" x="257" y="271.5986"/><ellipse cx="280.0886" cy="291.5474" fill="#ADD1B2" rx="11" ry="11" style="stroke:#181818;stroke-width:1;"/><path d="M282.5617,297.6904 Q281.9807,297.9893 281.3415,298.1387 Q280.7023,298.2881 279.9968,298.2881 Q277.4899,298.2881 276.1701,296.6362 Q274.8503,294.9844 274.8503,291.8633 Q274.8503,288.7339 276.1701,287.082 Q277.4899,285.4302 279.9968,285.4302 Q280.7023,285.4302 281.3498,285.5796 Q281.9973,285.729 282.5617,286.0278 L282.5617,288.7505 Q281.9309,288.1694 281.3374,287.8997 Q280.7438,287.6299 280.113,287.6299 Q278.7683,287.6299 278.0834,288.6965 Q277.3986,289.7632 277.3986,291.8633 Q277.3986,293.9551 278.0834,295.0217 Q278.7683,296.0884 280.113,296.0884 Q280.7438,296.0884 281.3374,295.8186 Q281.9309,295.5488 282.5617,294.9678 Z " fill="#000000"/><text fill="#000000" font-family="Arial" font-size="12" font-style="italic" lengthAdjust="spacing" textLength="98.7246" x="293.886" y="287.8545">&#171;domain contract&#187;</text><text fill="#000000" font-family="Arial" font-size="14" lengthAdjust="spacing" textLength="63.8066" x="311.345" y="303.5293">Document</text><line style="stroke:#181818;stroke-width:0.5;" x1="258" x2="400.6992" y1="311.4961" y2="311.4961"/><text fill="#000000" font-family="Arial" font-size="14" lengthAdjust="spacing" textLength="42.4033" x="263" y="328.6279">+id: str</text><text fill="#000000" font-family="Arial" font-size="14" lengthAdjust="spacing" textLength="54.0723" x="263" y="344.7266">+text: str</text><text fill="#000000" font-family="Arial" font-size="14" lengthAdjust="spacing" textLength="132.6992" x="263" y="360.8252">+metadata: Metadata</text><line style="stroke:#181818;stroke-width:0.5;" x1="258" x2="400.6992" y1="367.792" y2="367.792"/></g><!--class ImageRef--><g class="entity" data-entity="ImageRef" data-source-line="15" data-uid="ent0003" id="entity_ImageRef"><rect fill="#F1F1F1" height="200.7852" rx="2.5" ry="2.5" style="stroke:#181818;stroke-width:0.5;" width="135.4023" x="362" y="478.0986"/><ellipse cx="377" cy="498.0474" fill="#ADD1B2" rx="11" ry="11" style="stroke:#181818;stroke-width:1;"/><path d="M379.4731,504.1904 Q378.8921,504.4893 378.2529,504.6387 Q377.6138,504.7881 376.9082,504.7881 Q374.4014,504.7881 373.0815,503.1362 Q371.7617,501.4844 371.7617,498.3633 Q371.7617,495.2339 373.0815,493.582 Q374.4014,491.9302 376.9082,491.9302 Q377.6138,491.9302 378.2612,492.0796 Q378.9087,492.229 379.4731,492.5278 L379.4731,495.2505 Q378.8423,494.6694 378.2488,494.3997 Q377.6553,494.1299 377.0244,494.1299 Q375.6797,494.1299 374.9949,495.1965 Q374.3101,496.2632 374.3101,498.3633 Q374.3101,500.4551 374.9949,501.5217 Q375.6797,502.5884 377.0244,502.5884 Q377.6553,502.5884 378.2488,502.3186 Q378.8423,502.0488 379.4731,501.4678 Z " fill="#000000"/><text fill="#000000" font-family="Arial" font-size="12" font-style="italic" lengthAdjust="spacing" textLength="107.4023" x="389" y="494.3545">&#171;storage reference&#187;</text><text fill="#000000" font-family="Arial" font-size="14" lengthAdjust="spacing" textLength="60.6963" x="412.353" y="510.0293">ImageRef</text><line style="stroke:#181818;stroke-width:0.5;" x1="363" x2="496.4023" y1="517.9961" y2="517.9961"/><text fill="#000000" font-family="Arial" font-size="14" lengthAdjust="spacing" textLength="88.3203" x="368" y="535.1279">+image_id: str</text><text fill="#000000" font-family="Arial" font-size="14" lengthAdjust="spacing" textLength="58.7549" x="368" y="551.2266">+path: str</text><text fill="#000000" font-family="Arial" font-size="14" lengthAdjust="spacing" textLength="89.8721" x="368" y="567.3252">+collection: str</text><text fill="#000000" font-family="Arial" font-size="14" lengthAdjust="spacing" textLength="108.5615" x="368" y="583.4238">+source_path: str</text><text fill="#000000" font-family="Arial" font-size="14" lengthAdjust="spacing" textLength="69.6719" x="368" y="599.5225">+page: int?</text><text fill="#000000" font-family="Arial" font-size="14" lengthAdjust="spacing" textLength="99.9756" x="368" y="615.6211">+mime_type: str</text><text fill="#000000" font-family="Arial" font-size="14" lengthAdjust="spacing" textLength="103.1201" x="368" y="631.7197">+text_offset: int?</text><text fill="#000000" font-family="Arial" font-size="14" lengthAdjust="spacing" textLength="107.0234" x="368" y="647.8184">+text_length: int?</text><text fill="#000000" font-family="Arial" font-size="14" lengthAdjust="spacing" textLength="117.8926" x="368" y="663.917">+position: JsonDict</text><line style="stroke:#181818;stroke-width:0.5;" x1="363" x2="496.4023" y1="670.8838" y2="670.8838"/></g><!--class Chunk--><g class="entity" data-entity="Chunk" data-source-line="27" data-uid="ent0004" id="entity_Chunk"><rect fill="#F1F1F1" height="168.5879" rx="2.5" ry="2.5" style="stroke:#181818;stroke-width:0.5;" width="144.6992" x="199" y="494.0986"/><ellipse cx="222.0886" cy="514.0474" fill="#ADD1B2" rx="11" ry="11" style="stroke:#181818;stroke-width:1;"/><path d="M224.5617,520.1904 Q223.9807,520.4893 223.3415,520.6387 Q222.7023,520.7881 221.9968,520.7881 Q219.4899,520.7881 218.1701,519.1362 Q216.8503,517.4844 216.8503,514.3633 Q216.8503,511.2339 218.1701,509.582 Q219.4899,507.9302 221.9968,507.9302 Q222.7023,507.9302 223.3498,508.0796 Q223.9973,508.229 224.5617,508.5278 L224.5617,511.2505 Q223.9309,510.6694 223.3374,510.3997 Q222.7438,510.1299 222.113,510.1299 Q220.7683,510.1299 220.0834,511.1965 Q219.3986,512.2632 219.3986,514.3633 Q219.3986,516.4551 220.0834,517.5217 Q220.7683,518.5884 222.113,518.5884 Q222.7438,518.5884 223.3374,518.3186 Q223.9309,518.0488 224.5617,517.4678 Z " fill="#000000"/><text fill="#000000" font-family="Arial" font-size="12" font-style="italic" lengthAdjust="spacing" textLength="98.7246" x="235.886" y="510.3545">&#171;domain contract&#187;</text><text fill="#000000" font-family="Arial" font-size="14" lengthAdjust="spacing" textLength="40.4688" x="265.014" y="526.0293">Chunk</text><line style="stroke:#181818;stroke-width:0.5;" x1="200" x2="342.6992" y1="533.9961" y2="533.9961"/><text fill="#000000" font-family="Arial" font-size="14" lengthAdjust="spacing" textLength="42.4033" x="205" y="551.1279">+id: str</text><text fill="#000000" font-family="Arial" font-size="14" lengthAdjust="spacing" textLength="54.0723" x="205" y="567.2266">+text: str</text><text fill="#000000" font-family="Arial" font-size="14" lengthAdjust="spacing" textLength="132.6992" x="205" y="583.3252">+metadata: Metadata</text><text fill="#000000" font-family="Arial" font-size="14" lengthAdjust="spacing" textLength="97.6514" x="205" y="599.4238">+source_ref: str</text><text fill="#000000" font-family="Arial" font-size="14" lengthAdjust="spacing" textLength="109.3545" x="205" y="615.5225">+chunk_index: int</text><text fill="#000000" font-family="Arial" font-size="14" lengthAdjust="spacing" textLength="107.7822" x="205" y="631.6211">+start_offset: int?</text><text fill="#000000" font-family="Arial" font-size="14" lengthAdjust="spacing" textLength="103.9131" x="205" y="647.7197">+end_offset: int?</text><line style="stroke:#181818;stroke-width:0.5;" x1="200" x2="342.6992" y1="654.6865" y2="654.6865"/></g><!--class ChunkRecord--><g class="entity" data-entity="ChunkRecord" data-source-line="37" data-uid="ent0005" id="entity_ChunkRecord"><rect fill="#F1F1F1" height="152.4893" rx="2.5" ry="2.5" style="stroke:#181818;stroke-width:0.5;" width="184.3955" x="179.5" y="733.0986"/><ellipse cx="220.444" cy="753.0474" fill="#ADD1B2" rx="11" ry="11" style="stroke:#181818;stroke-width:1;"/><path d="M222.9171,759.1904 Q222.3361,759.4893 221.6969,759.6387 Q221.0578,759.7881 220.3522,759.7881 Q217.8454,759.7881 216.5255,758.1362 Q215.2057,756.4844 215.2057,753.3633 Q215.2057,750.2339 216.5255,748.582 Q217.8454,746.9302 220.3522,746.9302 Q221.0578,746.9302 221.7052,747.0796 Q222.3527,747.229 222.9171,747.5278 L222.9171,750.2505 Q222.2863,749.6694 221.6928,749.3997 Q221.0993,749.1299 220.4684,749.1299 Q219.1237,749.1299 218.4389,750.1965 Q217.7541,751.2632 217.7541,753.3633 Q217.7541,755.4551 218.4389,756.5217 Q219.1237,757.5884 220.4684,757.5884 Q221.0993,757.5884 221.6928,757.3186 Q222.2863,757.0488 222.9171,756.4678 Z " fill="#000000"/><text fill="#000000" font-family="Arial" font-size="12" font-style="italic" lengthAdjust="spacing" textLength="98.7422" x="238.2093" y="749.3545">&#171;storage payload&#187;</text><text fill="#000000" font-family="Arial" font-size="14" lengthAdjust="spacing" textLength="85.5996" x="244.7806" y="765.0293">ChunkRecord</text><line style="stroke:#181818;stroke-width:0.5;" x1="180.5" x2="362.8955" y1="772.9961" y2="772.9961"/><text fill="#000000" font-family="Arial" font-size="14" lengthAdjust="spacing" textLength="42.4033" x="185.5" y="790.1279">+id: str</text><text fill="#000000" font-family="Arial" font-size="14" lengthAdjust="spacing" textLength="54.0723" x="185.5" y="806.2266">+text: str</text><text fill="#000000" font-family="Arial" font-size="14" lengthAdjust="spacing" textLength="132.6992" x="185.5" y="822.3252">+metadata: Metadata</text><text fill="#000000" font-family="Arial" font-size="14" lengthAdjust="spacing" textLength="172.3955" x="185.5" y="838.4238">+dense_vector: List&lt;float&gt;?</text><text fill="#000000" font-family="Arial" font-size="14" lengthAdjust="spacing" textLength="165.3545" x="185.5" y="854.5225">+sparse_vector: JsonDict?</text><text fill="#000000" font-family="Arial" font-size="14" lengthAdjust="spacing" textLength="123.3613" x="185.5" y="870.6211">+content_hash: str?</text><line style="stroke:#181818;stroke-width:0.5;" x1="180.5" x2="362.8955" y1="877.5879" y2="877.5879"/></g><!--class ScoreKind--><g class="entity" data-entity="ScoreKind" data-source-line="46" data-uid="ent0006" id="entity_ScoreKind"><rect fill="#F1F1F1" height="112.3945" rx="2.5" ry="2.5" style="stroke:#181818;stroke-width:0.5;" width="96.5928" x="617" y="53.0986"/><ellipse cx="632" cy="69.0986" fill="#EB937F" rx="11" ry="11" style="stroke:#181818;stroke-width:1;"/><path d="M635.6143,75.5986 L627.8945,75.5986 L627.8945,63.2056 L635.6143,63.2056 L635.6143,65.3638 L630.3433,65.3638 L630.3433,68.0366 L635.1162,68.0366 L635.1162,70.1948 L630.3433,70.1948 L630.3433,73.4404 L635.6143,73.4404 Z " fill="#000000"/><text fill="#000000" font-family="Arial" font-size="14" lengthAdjust="spacing" textLength="64.5928" x="646" y="74.1812">ScoreKind</text><line style="stroke:#181818;stroke-width:0.5;" x1="618" x2="712.5928" y1="85.0986" y2="85.0986"/><text fill="#000000" font-family="Arial" font-size="14" lengthAdjust="spacing" textLength="54.4414" x="623" y="102.2305">similarity</text><text fill="#000000" font-family="Arial" font-size="14" lengthAdjust="spacing" textLength="52.1445" x="623" y="118.3291">distance</text><text fill="#000000" font-family="Arial" font-size="14" lengthAdjust="spacing" textLength="35.0205" x="623" y="134.4277">bm25</text><text fill="#000000" font-family="Arial" font-size="14" lengthAdjust="spacing" textLength="56.041" x="623" y="150.5264">unknown</text><line style="stroke:#181818;stroke-width:0.5;" x1="618" x2="712.5928" y1="157.4932" y2="157.4932"/></g><!--class CandidateSource--><g class="entity" data-entity="CandidateSource" data-source-line="53" data-uid="ent0007" id="entity_CandidateSource"><rect fill="#F1F1F1" height="112.3945" rx="2.5" ry="2.5" style="stroke:#181818;stroke-width:0.5;" width="140.1855" x="732.5" y="53.0986"/><ellipse cx="747.5" cy="69.0986" fill="#EB937F" rx="11" ry="11" style="stroke:#181818;stroke-width:1;"/><path d="M751.1143,75.5986 L743.3945,75.5986 L743.3945,63.2056 L751.1143,63.2056 L751.1143,65.3638 L745.8433,65.3638 L745.8433,68.0366 L750.6162,68.0366 L750.6162,70.1948 L745.8433,70.1948 L745.8433,73.4404 L751.1143,73.4404 Z " fill="#000000"/><text fill="#000000" font-family="Arial" font-size="14" lengthAdjust="spacing" textLength="108.1855" x="761.5" y="74.1812">CandidateSource</text><line style="stroke:#181818;stroke-width:0.5;" x1="733.5" x2="871.6855" y1="85.0986" y2="85.0986"/><text fill="#000000" font-family="Arial" font-size="14" lengthAdjust="spacing" textLength="38.1445" x="738.5" y="102.2305">dense</text><text fill="#000000" font-family="Arial" font-size="14" lengthAdjust="spacing" textLength="42.0205" x="738.5" y="118.3291">sparse</text><text fill="#000000" font-family="Arial" font-size="14" lengthAdjust="spacing" textLength="37.3584" x="738.5" y="134.4277">fusion</text><text fill="#000000" font-family="Arial" font-size="14" lengthAdjust="spacing" textLength="39.6826" x="738.5" y="150.5264">rerank</text><line style="stroke:#181818;stroke-width:0.5;" x1="733.5" x2="871.6855" y1="157.4932" y2="157.4932"/></g><!--class IngestionStatus--><g class="entity" data-entity="IngestionStatus" data-source-line="60" data-uid="ent0008" id="entity_IngestionStatus"><rect fill="#F1F1F1" height="96.2959" rx="2.5" ry="2.5" style="stroke:#181818;stroke-width:0.5;" width="128.5098" x="601" y="275.5986"/><ellipse cx="616" cy="291.5986" fill="#EB937F" rx="11" ry="11" style="stroke:#181818;stroke-width:1;"/><path d="M619.6143,298.0986 L611.8945,298.0986 L611.8945,285.7056 L619.6143,285.7056 L619.6143,287.8638 L614.3433,287.8638 L614.3433,290.5366 L619.1162,290.5366 L619.1162,292.6948 L614.3433,292.6948 L614.3433,295.9404 L619.6143,295.9404 Z " fill="#000000"/><text fill="#000000" font-family="Arial" font-size="14" lengthAdjust="spacing" textLength="96.5098" x="630" y="296.6812">IngestionStatus</text><line style="stroke:#181818;stroke-width:0.5;" x1="602" x2="728.5098" y1="307.5986" y2="307.5986"/><text fill="#000000" font-family="Arial" font-size="14" lengthAdjust="spacing" textLength="50.5723" x="607" y="324.7305">success</text><text fill="#000000" font-family="Arial" font-size="14" lengthAdjust="spacing" textLength="48.2549" x="607" y="340.8291">skipped</text><text fill="#000000" font-family="Arial" font-size="14" lengthAdjust="spacing" textLength="33.4688" x="607" y="356.9277">failed</text><line style="stroke:#181818;stroke-width:0.5;" x1="602" x2="728.5098" y1="363.8945" y2="363.8945"/></g><!--class SearchHit--><g class="entity" data-entity="SearchHit" data-source-line="66" data-uid="ent0009" id="entity_SearchHit"><rect fill="#F1F1F1" height="152.4893" rx="2.5" ry="2.5" style="stroke:#181818;stroke-width:0.5;" width="160.251" x="161.5" y="1073.0986"/><ellipse cx="206.6411" cy="1093.0474" fill="#ADD1B2" rx="11" ry="11" style="stroke:#181818;stroke-width:1;"/><path d="M209.1143,1099.1904 Q208.5332,1099.4893 207.894,1099.6387 Q207.2549,1099.7881 206.5493,1099.7881 Q204.0425,1099.7881 202.7227,1098.1362 Q201.4028,1096.4844 201.4028,1093.3633 Q201.4028,1090.2339 202.7227,1088.582 Q204.0425,1086.9302 206.5493,1086.9302 Q207.2549,1086.9302 207.9023,1087.0796 Q208.5498,1087.229 209.1143,1087.5278 L209.1143,1090.2505 Q208.4834,1089.6694 207.8899,1089.3997 Q207.2964,1089.1299 206.6655,1089.1299 Q205.3208,1089.1299 204.636,1090.1965 Q203.9512,1091.2632 203.9512,1093.3633 Q203.9512,1095.4551 204.636,1096.5217 Q205.3208,1097.5884 206.6655,1097.5884 Q207.2964,1097.5884 207.8899,1097.3186 Q208.4834,1097.0488 209.1143,1096.4678 Z " fill="#000000"/><text fill="#000000" font-family="Arial" font-size="12" font-style="italic" lengthAdjust="spacing" textLength="56.0332" x="229.8589" y="1089.3545">&#171;store hit&#187;</text><text fill="#000000" font-family="Arial" font-size="14" lengthAdjust="spacing" textLength="61.4688" x="227.1411" y="1105.0293">SearchHit</text><line style="stroke:#181818;stroke-width:0.5;" x1="162.5" x2="320.751" y1="1112.9961" y2="1112.9961"/><text fill="#000000" font-family="Arial" font-size="14" lengthAdjust="spacing" textLength="42.4033" x="167.5" y="1130.1279">+id: str</text><text fill="#000000" font-family="Arial" font-size="14" lengthAdjust="spacing" textLength="54.0723" x="167.5" y="1146.2266">+text: str</text><text fill="#000000" font-family="Arial" font-size="14" lengthAdjust="spacing" textLength="132.6992" x="167.5" y="1162.3252">+metadata: Metadata</text><text fill="#000000" font-family="Arial" font-size="14" lengthAdjust="spacing" textLength="76.6514" x="167.5" y="1178.4238">+score: float</text><text fill="#000000" font-family="Arial" font-size="14" lengthAdjust="spacing" textLength="148.251" x="167.5" y="1194.5225">+score_kind: ScoreKind</text><text fill="#000000" font-family="Arial" font-size="14" lengthAdjust="spacing" textLength="92.1963" x="167.5" y="1210.6211">+raw: JsonDict</text><line style="stroke:#181818;stroke-width:0.5;" x1="162.5" x2="320.751" y1="1217.5879" y2="1217.5879"/></g><!--class RetrievalCandidate--><g class="entity" data-entity="RetrievalCandidate" data-source-line="75" data-uid="ent0010" id="entity_RetrievalCandidate"><rect fill="#F1F1F1" height="168.5879" rx="2.5" ry="2.5" style="stroke:#181818;stroke-width:0.5;" width="178.1611" x="152.5" y="1279.0986"/><ellipse cx="179.6917" cy="1299.0474" fill="#ADD1B2" rx="11" ry="11" style="stroke:#181818;stroke-width:1;"/><path d="M182.1649,1305.1904 Q181.5838,1305.4893 180.9447,1305.6387 Q180.3055,1305.7881 179.6,1305.7881 Q177.0931,1305.7881 175.7733,1304.1362 Q174.4535,1302.4844 174.4535,1299.3633 Q174.4535,1296.2339 175.7733,1294.582 Q177.0931,1292.9302 179.6,1292.9302 Q180.3055,1292.9302 180.953,1293.0796 Q181.6004,1293.229 182.1649,1293.5278 L182.1649,1296.2505 Q181.534,1295.6694 180.9405,1295.3997 Q180.347,1295.1299 179.7162,1295.1299 Q178.3714,1295.1299 177.6866,1296.1965 Q177.0018,1297.2632 177.0018,1299.3633 Q177.0018,1301.4551 177.6866,1302.5217 Q178.3714,1303.5884 179.7162,1303.5884 Q180.347,1303.5884 180.9405,1303.3186 Q181.534,1303.0488 182.1649,1302.4678 Z " fill="#000000"/><text fill="#000000" font-family="Arial" font-size="12" font-style="italic" lengthAdjust="spacing" textLength="98.7422" x="206.5641" y="1295.3545">&#171;query candidate&#187;</text><text fill="#000000" font-family="Arial" font-size="14" lengthAdjust="spacing" textLength="119.0684" x="196.401" y="1311.0293">RetrievalCandidate</text><line style="stroke:#181818;stroke-width:0.5;" x1="153.5" x2="329.6611" y1="1318.9961" y2="1318.9961"/><text fill="#000000" font-family="Arial" font-size="14" lengthAdjust="spacing" textLength="87.5479" x="158.5" y="1336.1279">+chunk_id: str</text><text fill="#000000" font-family="Arial" font-size="14" lengthAdjust="spacing" textLength="54.0723" x="158.5" y="1352.2266">+text: str</text><text fill="#000000" font-family="Arial" font-size="14" lengthAdjust="spacing" textLength="132.6992" x="158.5" y="1368.3252">+metadata: Metadata</text><text fill="#000000" font-family="Arial" font-size="14" lengthAdjust="spacing" textLength="76.6514" x="158.5" y="1384.4238">+score: float</text><text fill="#000000" font-family="Arial" font-size="14" lengthAdjust="spacing" textLength="166.1611" x="158.5" y="1400.5225">+source: CandidateSource</text><text fill="#000000" font-family="Arial" font-size="14" lengthAdjust="spacing" textLength="57.9756" x="158.5" y="1416.6211">+rank: int</text><text fill="#000000" font-family="Arial" font-size="14" lengthAdjust="spacing" textLength="108.5684" x="158.5" y="1432.7197">+debug: JsonDict</text><line style="stroke:#181818;stroke-width:0.5;" x1="153.5" x2="329.6611" y1="1439.6865" y2="1439.6865"/></g><!--class Citation--><g class="entity" data-entity="Citation" data-source-line="85" data-uid="ent0011" id="entity_Citation"><rect fill="#F1F1F1" height="168.5879" rx="2.5" ry="2.5" style="stroke:#181818;stroke-width:0.5;" width="144.6992" x="256" y="1502.0986"/><ellipse cx="276.6839" cy="1522.0474" fill="#ADD1B2" rx="11" ry="11" style="stroke:#181818;stroke-width:1;"/><path d="M279.157,1528.1904 Q278.576,1528.4893 277.9368,1528.6387 Q277.2977,1528.7881 276.5921,1528.7881 Q274.0853,1528.7881 272.7654,1527.1362 Q271.4456,1525.4844 271.4456,1522.3633 Q271.4456,1519.2339 272.7654,1517.582 Q274.0853,1515.9302 276.5921,1515.9302 Q277.2977,1515.9302 277.9451,1516.0796 Q278.5926,1516.229 279.157,1516.5278 L279.157,1519.2505 Q278.5262,1518.6694 277.9327,1518.3997 Q277.3392,1518.1299 276.7083,1518.1299 Q275.3636,1518.1299 274.6788,1519.1965 Q273.9939,1520.2632 273.9939,1522.3633 Q273.9939,1524.4551 274.6788,1525.5217 Q275.3636,1526.5884 276.7083,1526.5884 Q277.3392,1526.5884 277.9327,1526.3186 Q278.5262,1526.0488 279.157,1525.4678 Z " fill="#000000"/><text fill="#000000" font-family="Arial" font-size="12" font-style="italic" lengthAdjust="spacing" textLength="104.0684" x="289.947" y="1518.3545">&#171;response citation&#187;</text><text fill="#000000" font-family="Arial" font-size="14" lengthAdjust="spacing" textLength="47.4688" x="318.2468" y="1534.0293">Citation</text><line style="stroke:#181818;stroke-width:0.5;" x1="257" x2="399.6992" y1="1541.9961" y2="1541.9961"/><text fill="#000000" font-family="Arial" font-size="14" lengthAdjust="spacing" textLength="94.5479" x="262" y="1559.1279">+citation_id: str</text><text fill="#000000" font-family="Arial" font-size="14" lengthAdjust="spacing" textLength="87.5479" x="262" y="1575.2266">+chunk_id: str</text><text fill="#000000" font-family="Arial" font-size="14" lengthAdjust="spacing" textLength="108.5615" x="262" y="1591.3252">+source_path: str</text><text fill="#000000" font-family="Arial" font-size="14" lengthAdjust="spacing" textLength="69.6719" x="262" y="1607.4238">+page: int?</text><text fill="#000000" font-family="Arial" font-size="14" lengthAdjust="spacing" textLength="54.0723" x="262" y="1623.5225">+text: str</text><text fill="#000000" font-family="Arial" font-size="14" lengthAdjust="spacing" textLength="76.6514" x="262" y="1639.6211">+score: float</text><text fill="#000000" font-family="Arial" font-size="14" lengthAdjust="spacing" textLength="132.6992" x="262" y="1655.7197">+metadata: Metadata</text><line style="stroke:#181818;stroke-width:0.5;" x1="257" x2="399.6992" y1="1662.6865" y2="1662.6865"/></g><!--class ImagePayload--><g class="entity" data-entity="ImagePayload" data-source-line="95" data-uid="ent0012" id="entity_ImagePayload"><rect fill="#F1F1F1" height="152.4893" rx="2.5" ry="2.5" style="stroke:#181818;stroke-width:0.5;" width="140.0098" x="359.5" y="903.0986"/><ellipse cx="380.4757" cy="923.0474" fill="#ADD1B2" rx="11" ry="11" style="stroke:#181818;stroke-width:1;"/><path d="M382.9488,929.1904 Q382.3678,929.4893 381.7286,929.6387 Q381.0895,929.7881 380.3839,929.7881 Q377.8771,929.7881 376.5572,928.1362 Q375.2374,926.4844 375.2374,923.3633 Q375.2374,920.2339 376.5572,918.582 Q377.8771,916.9302 380.3839,916.9302 Q381.0895,916.9302 381.7369,917.0796 Q382.3844,917.229 382.9488,917.5278 L382.9488,920.2505 Q382.318,919.6694 381.7245,919.3997 Q381.131,919.1299 380.5001,919.1299 Q379.1554,919.1299 378.4706,920.1965 Q377.7857,921.2632 377.7857,923.3633 Q377.7857,925.4551 378.4706,926.5217 Q379.1554,927.5884 380.5001,927.5884 Q381.131,927.5884 381.7245,927.3186 Q382.318,927.0488 382.9488,926.4678 Z " fill="#000000"/><text fill="#000000" font-family="Arial" font-size="12" font-style="italic" lengthAdjust="spacing" textLength="98.7305" x="393.8036" y="919.3545">&#171;response image&#187;</text><text fill="#000000" font-family="Arial" font-size="14" lengthAdjust="spacing" textLength="89.5029" x="398.4174" y="935.0293">ImagePayload</text><line style="stroke:#181818;stroke-width:0.5;" x1="360.5" x2="498.5098" y1="942.9961" y2="942.9961"/><text fill="#000000" font-family="Arial" font-size="14" lengthAdjust="spacing" textLength="88.3203" x="365.5" y="960.1279">+image_id: str</text><text fill="#000000" font-family="Arial" font-size="14" lengthAdjust="spacing" textLength="99.9756" x="365.5" y="976.2266">+mime_type: str</text><text fill="#000000" font-family="Arial" font-size="14" lengthAdjust="spacing" textLength="120.2578" x="365.5" y="992.3252">+data_base64: str?</text><text fill="#000000" font-family="Arial" font-size="14" lengthAdjust="spacing" textLength="54.8516" x="365.5" y="1008.4238">+uri: str?</text><text fill="#000000" font-family="Arial" font-size="14" lengthAdjust="spacing" textLength="105.4375" x="365.5" y="1024.5225">+source_ref: str?</text><text fill="#000000" font-family="Arial" font-size="14" lengthAdjust="spacing" textLength="128.0098" x="365.5" y="1040.6211">+metadata: JsonDict</text><line style="stroke:#181818;stroke-width:0.5;" x1="360.5" x2="498.5098" y1="1047.5879" y2="1047.5879"/></g><!--class QueryRequest--><g class="entity" data-entity="QueryRequest" data-source-line="104" data-uid="ent0013" id="entity_QueryRequest"><rect fill="#F1F1F1" height="152.4893" rx="2.5" ry="2.5" style="stroke:#181818;stroke-width:0.5;" width="151.7061" x="7.5" y="502.5986"/><ellipse cx="35.7469" cy="522.5474" fill="#ADD1B2" rx="11" ry="11" style="stroke:#181818;stroke-width:1;"/><path d="M38.22,528.6904 Q37.639,528.9893 36.9998,529.1387 Q36.3606,529.2881 35.6551,529.2881 Q33.1482,529.2881 31.8284,527.6362 Q30.5086,525.9844 30.5086,522.8633 Q30.5086,519.7339 31.8284,518.082 Q33.1482,516.4302 35.6551,516.4302 Q36.3606,516.4302 37.0081,516.5796 Q37.6556,516.729 38.22,517.0278 L38.22,519.7505 Q37.5892,519.1694 36.9957,518.8997 Q36.4021,518.6299 35.7713,518.6299 Q34.4266,518.6299 33.7417,519.6965 Q33.0569,520.7632 33.0569,522.8633 Q33.0569,524.9551 33.7417,526.0217 Q34.4266,527.0884 35.7713,527.0884 Q36.4021,527.0884 36.9957,526.8186 Q37.5892,526.5488 38.22,525.9678 Z " fill="#000000"/><text fill="#000000" font-family="Arial" font-size="12" font-style="italic" lengthAdjust="spacing" textLength="80.7129" x="57.4685" y="518.8545">&#171;service input&#187;</text><text fill="#000000" font-family="Arial" font-size="14" lengthAdjust="spacing" textLength="90.2686" x="52.6906" y="534.5293">QueryRequest</text><line style="stroke:#181818;stroke-width:0.5;" x1="8.5" x2="158.2061" y1="542.4961" y2="542.4961"/><text fill="#000000" font-family="Arial" font-size="14" lengthAdjust="spacing" textLength="66.5273" x="13.5" y="559.6279">+query: str</text><text fill="#000000" font-family="Arial" font-size="14" lengthAdjust="spacing" textLength="64.9893" x="13.5" y="575.7266">+top_k: int</text><text fill="#000000" font-family="Arial" font-size="14" lengthAdjust="spacing" textLength="89.8721" x="13.5" y="591.8252">+collection: str</text><text fill="#000000" font-family="Arial" font-size="14" lengthAdjust="spacing" textLength="103.0859" x="13.5" y="607.9238">+filters: JsonDict</text><text fill="#000000" font-family="Arial" font-size="14" lengthAdjust="spacing" textLength="139.7061" x="13.5" y="624.0225">+include_images: bool</text><text fill="#000000" font-family="Arial" font-size="14" lengthAdjust="spacing" textLength="104.6719" x="13.5" y="640.1211">+request_id: str?</text><line style="stroke:#181818;stroke-width:0.5;" x1="8.5" x2="158.2061" y1="647.0879" y2="647.0879"/></g><!--class ProcessedQuery--><g class="entity" data-entity="ProcessedQuery" data-source-line="113" data-uid="ent0014" id="entity_ProcessedQuery"><rect fill="#F1F1F1" height="120.292" rx="2.5" ry="2.5" style="stroke:#181818;stroke-width:0.5;" width="154.8164" x="6" y="749.0986"/><ellipse cx="27.329" cy="769.0474" fill="#ADD1B2" rx="11" ry="11" style="stroke:#181818;stroke-width:1;"/><path d="M29.8021,775.1904 Q29.2211,775.4893 28.5819,775.6387 Q27.9428,775.7881 27.2372,775.7881 Q24.7304,775.7881 23.4105,774.1362 Q22.0907,772.4844 22.0907,769.3633 Q22.0907,766.2339 23.4105,764.582 Q24.7304,762.9302 27.2372,762.9302 Q27.9428,762.9302 28.5902,763.0796 Q29.2377,763.229 29.8021,763.5278 L29.8021,766.2505 Q29.1713,765.6694 28.5778,765.3997 Q27.9843,765.1299 27.3534,765.1299 Q26.0087,765.1299 25.3239,766.1965 Q24.6391,767.2632 24.6391,769.3633 Q24.6391,771.4551 25.3239,772.5217 Q26.0087,773.5884 27.3534,773.5884 Q27.9843,773.5884 28.5778,773.3186 Q29.1713,773.0488 29.8021,772.4678 Z " fill="#000000"/><text fill="#000000" font-family="Arial" font-size="12" font-style="italic" lengthAdjust="spacing" textLength="112.752" x="40.7354" y="765.3545">&#171;query stage output&#187;</text><text fill="#000000" font-family="Arial" font-size="14" lengthAdjust="spacing" textLength="104.2686" x="44.9771" y="781.0293">ProcessedQuery</text><line style="stroke:#181818;stroke-width:0.5;" x1="7" x2="159.8164" y1="788.9961" y2="788.9961"/><text fill="#000000" font-family="Arial" font-size="14" lengthAdjust="spacing" textLength="119.4512" x="12" y="806.1279">+original_query: str</text><text fill="#000000" font-family="Arial" font-size="14" lengthAdjust="spacing" textLength="142.8164" x="12" y="822.2266">+standalone_query: str</text><text fill="#000000" font-family="Arial" font-size="14" lengthAdjust="spacing" textLength="128.7754" x="12" y="838.3252">+keywords: List&lt;str&gt;</text><text fill="#000000" font-family="Arial" font-size="14" lengthAdjust="spacing" textLength="103.0859" x="12" y="854.4238">+filters: JsonDict</text><line style="stroke:#181818;stroke-width:0.5;" x1="7" x2="159.8164" y1="861.3906" y2="861.3906"/></g><!--class QueryResponse--><g class="entity" data-entity="QueryResponse" data-source-line="120" data-uid="ent0015" id="entity_QueryResponse"><rect fill="#F1F1F1" height="152.4893" rx="2.5" ry="2.5" style="stroke:#181818;stroke-width:0.5;" width="218.6094" x="219" y="1708.0986"/><ellipse cx="273.4722" cy="1728.0474" fill="#ADD1B2" rx="11" ry="11" style="stroke:#181818;stroke-width:1;"/><path d="M275.9453,1734.1904 Q275.3643,1734.4893 274.7251,1734.6387 Q274.0859,1734.7881 273.3804,1734.7881 Q270.8735,1734.7881 269.5537,1733.1362 Q268.2339,1731.4844 268.2339,1728.3633 Q268.2339,1725.2339 269.5537,1723.582 Q270.8735,1721.9302 273.3804,1721.9302 Q274.0859,1721.9302 274.7334,1722.0796 Q275.3809,1722.229 275.9453,1722.5278 L275.9453,1725.2505 Q275.3145,1724.6694 274.7209,1724.3997 Q274.1274,1724.1299 273.4966,1724.1299 Q272.1519,1724.1299 271.467,1725.1965 Q270.7822,1726.2632 270.7822,1728.3633 Q270.7822,1730.4551 271.467,1731.5217 Q272.1519,1732.5884 273.4966,1732.5884 Q274.1274,1732.5884 274.7209,1732.3186 Q275.3145,1732.0488 275.9453,1731.4678 Z " fill="#000000"/><text fill="#000000" font-family="Arial" font-size="12" font-style="italic" lengthAdjust="spacing" textLength="88.0547" x="300.5273" y="1724.3545">&#171;service output&#187;</text><text fill="#000000" font-family="Arial" font-size="14" lengthAdjust="spacing" textLength="101.165" x="293.9722" y="1740.0293">QueryResponse</text><line style="stroke:#181818;stroke-width:0.5;" x1="220" x2="436.6094" y1="1747.9961" y2="1747.9961"/><text fill="#000000" font-family="Arial" font-size="14" lengthAdjust="spacing" textLength="76.6377" x="225" y="1765.1279">+answer: str</text><text fill="#000000" font-family="Arial" font-size="14" lengthAdjust="spacing" textLength="152.9199" x="225" y="1781.2266">+citations: List&lt;Citation&gt;</text><text fill="#000000" font-family="Arial" font-size="14" lengthAdjust="spacing" textLength="206.6094" x="225" y="1797.3252">+items: List&lt;RetrievalCandidate&gt;</text><text fill="#000000" font-family="Arial" font-size="14" lengthAdjust="spacing" textLength="188.7266" x="225" y="1813.4238">+images: List&lt;ImagePayload&gt;</text><text fill="#000000" font-family="Arial" font-size="14" lengthAdjust="spacing" textLength="104.6719" x="225" y="1829.5225">+request_id: str?</text><text fill="#000000" font-family="Arial" font-size="14" lengthAdjust="spacing" textLength="128.0098" x="225" y="1845.6211">+metadata: JsonDict</text><line style="stroke:#181818;stroke-width:0.5;" x1="220" x2="436.6094" y1="1852.5879" y2="1852.5879"/></g><!--class IngestionRequest--><g class="entity" data-entity="IngestionRequest" data-source-line="129" data-uid="ent0016" id="entity_IngestionRequest"><rect fill="#F1F1F1" height="120.292" rx="2.5" ry="2.5" style="stroke:#181818;stroke-width:0.5;" width="140.9648" x="376" y="49.0986"/><ellipse cx="391" cy="69.0474" fill="#ADD1B2" rx="11" ry="11" style="stroke:#181818;stroke-width:1;"/><path d="M393.4731,75.1904 Q392.8921,75.4893 392.2529,75.6387 Q391.6138,75.7881 390.9082,75.7881 Q388.4014,75.7881 387.0815,74.1362 Q385.7617,72.4844 385.7617,69.3633 Q385.7617,66.2339 387.0815,64.582 Q388.4014,62.9302 390.9082,62.9302 Q391.6138,62.9302 392.2612,63.0796 Q392.9087,63.229 393.4731,63.5278 L393.4731,66.2505 Q392.8423,65.6694 392.2488,65.3997 Q391.6553,65.1299 391.0244,65.1299 Q389.6797,65.1299 388.9949,66.1965 Q388.3101,67.2632 388.3101,69.3633 Q388.3101,71.4551 388.9949,72.5217 Q389.6797,73.5884 391.0244,73.5884 Q391.6553,73.5884 392.2488,73.3186 Q392.8423,73.0488 393.4731,72.4678 Z " fill="#000000"/><text fill="#000000" font-family="Arial" font-size="12" font-style="italic" lengthAdjust="spacing" textLength="80.7129" x="419.126" y="65.3545">&#171;service input&#187;</text><text fill="#000000" font-family="Arial" font-size="14" lengthAdjust="spacing" textLength="108.9648" x="405" y="81.0293">IngestionRequest</text><line style="stroke:#181818;stroke-width:0.5;" x1="377" x2="515.9648" y1="88.9961" y2="88.9961"/><text fill="#000000" font-family="Arial" font-size="14" lengthAdjust="spacing" textLength="108.5615" x="382" y="106.1279">+source_path: str</text><text fill="#000000" font-family="Arial" font-size="14" lengthAdjust="spacing" textLength="89.8721" x="382" y="122.2266">+collection: str</text><text fill="#000000" font-family="Arial" font-size="14" lengthAdjust="spacing" textLength="73.5479" x="382" y="138.3252">+force: bool</text><text fill="#000000" font-family="Arial" font-size="14" lengthAdjust="spacing" textLength="104.6719" x="382" y="154.4238">+request_id: str?</text><line style="stroke:#181818;stroke-width:0.5;" x1="377" x2="515.9648" y1="161.3906" y2="161.3906"/></g><!--class IngestionResult--><g class="entity" data-entity="IngestionResult" data-source-line="136" data-uid="ent0017" id="entity_IngestionResult"><rect fill="#F1F1F1" height="200.7852" rx="2.5" ry="2.5" style="stroke:#181818;stroke-width:0.5;" width="161.8164" x="420.5" y="223.0986"/><ellipse cx="450.4911" cy="243.0474" fill="#ADD1B2" rx="11" ry="11" style="stroke:#181818;stroke-width:1;"/><path d="M452.9642,249.1904 Q452.3832,249.4893 451.744,249.6387 Q451.1048,249.7881 450.3993,249.7881 Q447.8924,249.7881 446.5726,248.1362 Q445.2528,246.4844 445.2528,243.3633 Q445.2528,240.2339 446.5726,238.582 Q447.8924,236.9302 450.3993,236.9302 Q451.1048,236.9302 451.7523,237.0796 Q452.3998,237.229 452.9642,237.5278 L452.9642,240.2505 Q452.3333,239.6694 451.7398,239.3997 Q451.1463,239.1299 450.5155,239.1299 Q449.1708,239.1299 448.4859,240.1965 Q447.8011,241.2632 447.8011,243.3633 Q447.8011,245.4551 448.4859,246.5217 Q449.1708,247.5884 450.5155,247.5884 Q451.1463,247.5884 451.7398,247.3186 Q452.3333,247.0488 452.9642,246.4678 Z " fill="#000000"/><text fill="#000000" font-family="Arial" font-size="12" font-style="italic" lengthAdjust="spacing" textLength="88.0547" x="472.0465" y="239.3545">&#171;service output&#187;</text><text fill="#000000" font-family="Arial" font-size="14" lengthAdjust="spacing" textLength="96.5029" x="467.8224" y="255.0293">IngestionResult</text><line style="stroke:#181818;stroke-width:0.5;" x1="421.5" x2="581.3164" y1="262.9961" y2="262.9961"/><text fill="#000000" font-family="Arial" font-size="14" lengthAdjust="spacing" textLength="108.5615" x="426.5" y="280.1279">+source_path: str</text><text fill="#000000" font-family="Arial" font-size="14" lengthAdjust="spacing" textLength="89.8721" x="426.5" y="296.2266">+collection: str</text><text fill="#000000" font-family="Arial" font-size="14" lengthAdjust="spacing" textLength="149.8164" x="426.5" y="312.3252">+status: IngestionStatus</text><text fill="#000000" font-family="Arial" font-size="14" lengthAdjust="spacing" textLength="87.5479" x="426.5" y="328.4238">+file_hash: str</text><text fill="#000000" font-family="Arial" font-size="14" lengthAdjust="spacing" textLength="119.458" x="426.5" y="344.5225">+document_id: str?</text><text fill="#000000" font-family="Arial" font-size="14" lengthAdjust="spacing" textLength="110.1338" x="426.5" y="360.6211">+chunk_count: int</text><text fill="#000000" font-family="Arial" font-size="14" lengthAdjust="spacing" textLength="110.9063" x="426.5" y="376.7197">+image_count: int</text><text fill="#000000" font-family="Arial" font-size="14" lengthAdjust="spacing" textLength="68.8516" x="426.5" y="392.8184">+error: str?</text><text fill="#000000" font-family="Arial" font-size="14" lengthAdjust="spacing" textLength="128.0098" x="426.5" y="408.917">+metadata: JsonDict</text><line style="stroke:#181818;stroke-width:0.5;" x1="421.5" x2="581.3164" y1="415.8838" y2="415.8838"/></g><g class="link" data-entity-1="Document" data-entity-2="ImageRef" data-uid="lnk18" id="link_Document_ImageRef"><polygon fill="#334155" points="390.1713,478.0971,390.583,468.2569,388.3334,473.4472,383.1431,471.1976,390.1713,478.0971" style="stroke:#334155;stroke-width:1;"/><path d="M349.7365,375.797 C361.3504,405.1802 374.1273,437.5058 387.9658,472.5172" fill="none" style="stroke:#334155;stroke-width:1;"/><text fill="#000000" font-family="Arial" font-size="13" lengthAdjust="spacing" textLength="99.7217" x="384.5" y="456.2925">metadata.images</text><text fill="#000000" font-family="Arial" font-size="13" lengthAdjust="spacing" textLength="5.0591" x="384.1713" y="475.291">*</text><text fill="#000000" font-family="Arial" font-size="13" lengthAdjust="spacing" textLength="7.23" x="341.7365" y="388.9908">1</text></g><g class="link" data-entity-1="Document" data-entity-2="Chunk" data-uid="lnk19" id="link_Document_Chunk"><polygon fill="#334155" points="290.7552,493.6059,296.6652,485.7273,291.8725,488.7323,288.8675,483.9397,290.7552,493.6059" style="stroke:#334155;stroke-width:1;"/><path d="M317.7628,375.797 C310.0172,409.5841 301.029,448.7912 292.096,487.7576" fill="none" style="stroke:#334155;stroke-width:1;"/><text fill="#000000" font-family="Arial" font-size="13" lengthAdjust="spacing" textLength="47.6899" x="304.5" y="456.2925">split into</text><text fill="#000000" font-family="Arial" font-size="13" lengthAdjust="spacing" textLength="5.0591" x="284.7552" y="490.7998">*</text><text fill="#000000" font-family="Arial" font-size="13" lengthAdjust="spacing" textLength="7.23" x="309.7628" y="388.9908">1</text></g><g class="link" data-entity-1="Chunk" data-entity-2="ChunkRecord" data-uid="lnk20" id="link_Chunk_ChunkRecord"><polygon fill="#334155" points="271.5,733.0146,275.5,724.0146,271.5,728.0146,267.5,724.0146,271.5,733.0146" style="stroke:#334155;stroke-width:1;"/><path d="M271.5,663.3861 C271.5,686.1855 271.5,704.7308 271.5,727.0146" fill="none" style="stroke:#334155;stroke-width:1;"/><text fill="#000000" font-family="Arial" font-size="13" lengthAdjust="spacing" textLength="115.6353" x="273.5" y="711.2925">encoded for storage</text><text fill="#000000" font-family="Arial" font-size="13" lengthAdjust="spacing" textLength="7.23" x="263.5" y="730.2085">1</text><text fill="#000000" font-family="Arial" font-size="13" lengthAdjust="spacing" textLength="7.23" x="263.5" y="676.58">1</text></g><g class="link" data-entity-1="ChunkRecord" data-entity-2="SearchHit" data-uid="lnk21" id="link_ChunkRecord_SearchHit"><polygon fill="#334155" points="248.1652,1073.0035,252.9453,1064.3924,248.6073,1068.0231,244.9766,1063.6851,248.1652,1073.0035" style="stroke:#334155;stroke-width:1;"/><path d="M264.842,885.1118 C259.8791,941.0269 253.6603,1011.0922 248.6957,1067.027" fill="none" style="stroke:#334155;stroke-width:1;"/><text fill="#000000" font-family="Arial" font-size="13" lengthAdjust="spacing" textLength="60.709" x="265.5" y="984.2925">queried as</text><text fill="#000000" font-family="Arial" font-size="13" lengthAdjust="spacing" textLength="5.0591" x="242.1652" y="1070.1974">*</text><text fill="#000000" font-family="Arial" font-size="13" lengthAdjust="spacing" textLength="7.23" x="256.842" y="898.3056">1</text></g><g class="link" data-entity-1="SearchHit" data-entity-2="RetrievalCandidate" data-uid="lnk22" id="link_SearchHit_RetrievalCandidate"><polygon fill="#334155" points="241.5,1278.7971,245.5,1269.7971,241.5,1273.7971,237.5,1269.7971,241.5,1278.7971" style="stroke:#334155;stroke-width:1;"/><path d="M241.5,1225.3172 C241.5,1242.6293 241.5,1255.1463 241.5,1272.7971" fill="none" style="stroke:#334155;stroke-width:1;"/><text fill="#000000" font-family="Arial" font-size="13" lengthAdjust="spacing" textLength="120.6689" x="243.5" y="1257.2925">mapped by Retriever</text></g><g class="link" data-entity-1="RetrievalCandidate" data-entity-2="Citation" data-uid="lnk23" id="link_RetrievalCandidate_Citation"><polygon fill="#334155" points="295.5625,1501.9299,295.9878,1492.0902,293.731,1497.2774,288.5438,1495.0206,295.5625,1501.9299" style="stroke:#334155;stroke-width:1;"/><path d="M274.391,1448.1493 C281.3201,1465.7508 286.4339,1478.741 293.3647,1496.3469" fill="none" style="stroke:#334155;stroke-width:1;"/><text fill="#000000" font-family="Arial" font-size="13" lengthAdjust="spacing" textLength="44.8018" x="290.5" y="1480.2925">cited by</text></g><g class="link" data-entity-1="ImageRef" data-entity-2="ImagePayload" data-uid="lnk24" id="link_ImageRef_ImagePayload"><polygon fill="#334155" points="429.5,902.9774,433.5,893.9774,429.5,897.9774,425.5,893.9774,429.5,902.9774" style="stroke:#334155;stroke-width:1;"/><path d="M429.5,679.1291 C429.5,748.5195 429.5,833.6504 429.5,896.9774" fill="none" style="stroke:#334155;stroke-width:1;"/><text fill="#000000" font-family="Arial" font-size="13" lengthAdjust="spacing" textLength="194.3525" x="431.5" y="711.2925">resolved by MultimodalAssembler</text></g><g class="link" data-entity-1="QueryRequest" data-entity-2="ProcessedQuery" data-uid="lnk25" id="link_QueryRequest_ProcessedQuery"><polygon fill="#334155" points="83.5,748.8438,87.5,739.8438,83.5,743.8438,79.5,739.8438,83.5,748.8438" style="stroke:#334155;stroke-width:1;"/><path d="M83.5,654.7346 C83.5,685.3025 83.5,714.1187 83.5,742.8438" fill="none" style="stroke:#334155;stroke-width:1;"/><text fill="#000000" font-family="Arial" font-size="13" lengthAdjust="spacing" textLength="45.519" x="85.5" y="711.2925">process</text></g><g class="link" data-entity-1="ProcessedQuery" data-entity-2="SearchHit" data-uid="lnk26" id="link_ProcessedQuery_SearchHit"><polygon fill="#334155" points="161.3216,1105.2484,156.4409,1096.6939,157.2935,1102.2861,151.7013,1103.1388,161.3216,1105.2484" style="stroke:#334155;stroke-width:1;"/><path d="M78.0254,869.2158 C75.9877,921.6233 80.1247,998.4163 113.5,1055.0986 C125.1376,1074.8631 137.9675,1088.0737 156.4879,1101.6937" fill="none" style="stroke:#334155;stroke-width:1;"/><text fill="#000000" font-family="Arial" font-size="13" lengthAdjust="spacing" textLength="129.3208" x="115.5" y="984.2925">retrievers query stores</text></g><g class="link" data-entity-1="RetrievalCandidate" data-entity-2="QueryResponse" data-uid="lnk27" id="link_RetrievalCandidate_QueryResponse"><polygon fill="#334155" points="264.2302,1707.9394,262.9243,1698.1775,261.6116,1703.6799,256.1091,1702.3673,264.2302,1707.9394" style="stroke:#334155;stroke-width:1;"/><path d="M229.4562,1448.2074 C223.551,1511.1665 222.1767,1598.7065 246.5,1671.0986 C250.7598,1683.777 253.8844,1691.1108 261.0878,1702.8281" fill="none" style="stroke:#334155;stroke-width:1;"/></g><g class="link" data-entity-1="Citation" data-entity-2="QueryResponse" data-uid="lnk28" id="link_Citation_QueryResponse"><polygon fill="#334155" points="328.5,1707.848,332.5,1698.848,328.5,1702.848,324.5,1698.848,328.5,1707.848" style="stroke:#334155;stroke-width:1;"/><path d="M328.5,1671.359 C328.5,1683.4845 328.5,1689.9032 328.5,1701.848" fill="none" style="stroke:#334155;stroke-width:1;"/></g><g class="link" data-entity-1="ImagePayload" data-entity-2="QueryResponse" data-uid="lnk29" id="link_ImagePayload_QueryResponse"><polygon fill="#334155" points="388.8909,1707.8154,397.1561,1702.4594,391.6209,1703.6265,390.4538,1698.0914,388.8909,1707.8154" style="stroke:#334155;stroke-width:1;"/><path d="M429.5,1055.1558 C429.5,1109.5546 429.5,1184.8777 429.5,1251.0986 C429.5,1251.0986 429.5,1251.0986 429.5,1587.5986 C429.5,1625.7594 425.4294,1636.4215 409.5,1671.0986 C403.7904,1683.5281 399.8837,1690.9483 392.1669,1702.7887" fill="none" style="stroke:#334155;stroke-width:1;"/></g><g class="link" data-entity-1="IngestionRequest" data-entity-2="Document" data-uid="lnk30" id="link_IngestionRequest_Document"><polygon fill="#334155" points="357.7443,271.3001,365.5892,265.3454,360.1559,266.9202,358.5812,261.4869,357.7443,271.3001" style="stroke:#334155;stroke-width:1;"/><path d="M413.909,169.2917 C396.2612,201.3443 377.5652,235.3007 360.6382,266.0442" fill="none" style="stroke:#334155;stroke-width:1;"/><text fill="#000000" font-family="Arial" font-size="13" lengthAdjust="spacing" textLength="24.5781" x="404.5" y="201.2925">load</text></g><g class="link" data-entity-1="IngestionRequest" data-entity-2="IngestionResult" data-uid="lnk31" id="link_IngestionRequest_IngestionResult"><polygon fill="#334155" points="475.7261,223.0178,477.3434,213.3026,474.4733,218.1773,469.5986,215.3072,475.7261,223.0178" style="stroke:#334155;stroke-width:1;"/><path d="M461.8206,169.2917 C466.1434,185.9934 469.4659,198.8306 474.2227,217.2092" fill="none" style="stroke:#334155;stroke-width:1;"/><text fill="#000000" font-family="Arial" font-size="13" lengthAdjust="spacing" textLength="88.8862" x="473.5" y="201.2925">pipeline returns</text></g><!--SRC=[hLRRRkCs47tNLqpTjnPRDBkRFWY1Wo11qRJTOfjyW30MnpPXYbH9AbwtwBztI4dKnGgysEsJgE5mvioP2_bDRN5N8IWycSQ3gyYZninBhmYUQ4kMT4dmuziSxeqbU42FlDBUOkaTR1kbO2j92QYmpZ9taBf6YnMK2fsxyzxAJUFfiJJwMVxDXaOgRe_27ANUmHQLez6Ee2qsol_CVlx0Yc1rPoMgrKZZpbfpl3VAMFZstRltLzVNMHPTmeCfcugqXviROIgK6ieExdeD_sG0tqkHW_CsB3rzykadn2uulXm-TAlitzxgOuKxOZxOglE6EIEmFJl9Rj0fHjPhzFlqKngbgFJIw2Hofh4b5HErccta8BM_ZP1aHOK_rJH1N9Zjrf4VrA9GaTu5GxsmDawsxdvrHZ_8qW_XtEyRVVXV61h2O3w6O8FzGcf1doAWgERHdaCdBQQoASOdAeqL8zPhF2c3uikG2jAEYXTEWx4v_2wTlzcoDR-EK1oNrcYxP-sspPxsN5J57bsRgmYKT5F1CoEatpZMYCZ9IYgqqf_uHx07v0hXvQPwUyqV3acReqw7xr4BoV3eEP8OJKIKmLJ4mujjupYFlB1aKH_IuKUz8nTI_EpHDwxrtvGbEHTM1rdN9C9vb8eNYTbdGblkVv6-uvLWBxyqzo7u72ABwR_WDcKhYPYmOV6uL8XFn1E2Nb0b8XZJNmtP4vIzf4VM5TNNuOiqvtFUMuJwa8fLqARPBNQEPAwPSePfoTM6KmLb9qj0k_ynrZFmbvj_4juya8l3wcFRA6ESSK2zEgtEPqsmMcpGqK_lkvfdOMFby3Dh_TifidFs_WoPVI9Ei8l5H_P5SjNpL6zI0SRi3pasTJ6aPM68RgNoPDt8MmXEbweH75u8alSsngYOuzPr7_Pesdoq9lGDYGWn5I7tBmyTlXf708sLEwbH5LEaeTK5AgDfjd6Wqv67cEic3alNoy3dD7Lf6tYQua3jZcI72kkghlVJLsfq9ZrL_SPvpwrJGVGwun9QBp9t8TDfDbt8zb8RB6NPnBQzdCUHNyTFY5V9-qo_BaxMV3vgk_pHS1_4VkcU7XEIsiOlJQDzAkEszwOouXUDlSHjUjoihbRmviqQLj-jXhT93lsf7zfaBkktbp-xgXLV0UpUPAqeALsj9hTl3lpCCO84S1gWkucpiSRO_72xv10QGV8vTDaW3eeBSpyFJqY-i61pwhV9PWkAuNmQmtcOll5GbdW82fCPcFFDwOnwQOr_uBgGbU5UlUE6hpQAtKm6KpW_cmSvrAqWcsq4tN74jaVke9yWFBZTQt5CEZrBKPrlJU9Ps9wtMr19sSyX75jMcZSCHofhKbA75wvlh7R_0G00]--></g></svg>