<?xml version="1.0" encoding="us-ascii" standalone="no"?><svg xmlns="http://www.w3.org/2000/svg" xmlns:xlink="http://www.w3.org/1999/xlink" contentStyleType="text/css" height="1264px" preserveAspectRatio="none" style="width:1814px;height:1264px;background:#FFFFFF;" version="1.1" viewBox="0 0 1814 1264" width="1814px" zoomAndPan="magnify"><defs/><g><text fill="#000000" font-family="Arial" font-size="14" font-weight="bold" lengthAdjust="spacing" textLength="466" x="672.5" y="28.1318">04 Query Runtime Collaboration: UML sequence with data contracts</text><rect fill="#F8FAFC" height="927.6494" style="stroke:#94A3B8;stroke-width:1.0;" width="10" x="257.5" y="165.2446"/><rect fill="#F8FAFC" height="717.1108" style="stroke:#94A3B8;stroke-width:1.0;" width="10" x="532.5" y="194.1934"/><rect fill="#F8FAFC" height="28.9487" style="stroke:#94A3B8;stroke-width:1.0;" width="10" x="807.5" y="223.1421"/><rect fill="#F8FAFC" height="168.5386" style="stroke:#94A3B8;stroke-width:1.0;" width="10" x="932.5" y="304.9883"/><rect fill="#F8FAFC" height="153.5898" style="stroke:#94A3B8;stroke-width:1.0;" width="10" x="1057.5" y="517.1245"/><rect fill="#F8FAFC" height="28.9487" style="stroke:#94A3B8;stroke-width:1.0;" width="10" x="1181" y="706.6631"/><rect fill="#F8FAFC" height="28.9487" style="stroke:#94A3B8;stroke-width:1.0;" width="10" x="1299" y="764.5605"/><rect fill="#F8FAFC" height="28.9487" style="stroke:#94A3B8;stroke-width:1.0;" width="10" x="1414.5" y="846.4067"/><rect fill="#F8FAFC" height="123.6924" style="stroke:#94A3B8;stroke-width:1.0;" width="10" x="1538" y="940.2529"/><rect fill="none" height="411.6235" style="stroke:#000000;stroke-width:1.5;" width="978" x="479" y="267.0908"/><rect fill="none" height="74.8462" style="stroke:#000000;stroke-width:1.5;" width="1003" x="479" y="808.5093"/><line style="stroke:#94A3B8;stroke-width:0.5;stroke-dasharray:5.0,5.0;" x1="39" x2="39" y1="134.2959" y2="1167.7915"/><line style="stroke:#94A3B8;stroke-width:0.5;stroke-dasharray:5.0,5.0;" x1="262" x2="262" y1="134.2959" y2="1167.7915"/><line style="stroke:#94A3B8;stroke-width:0.5;stroke-dasharray:5.0,5.0;" x1="537" x2="537" y1="134.2959" y2="1167.7915"/><line style="stroke:#94A3B8;stroke-width:0.5;stroke-dasharray:5.0,5.0;" x1="812" x2="812" y1="134.2959" y2="1167.7915"/><line style="stroke:#94A3B8;stroke-width:0.5;stroke-dasharray:5.0,5.0;" x1="937" x2="937" y1="134.2959" y2="1167.7915"/><line style="stroke:#94A3B8;stroke-width:0.5;stroke-dasharray:5.0,5.0;" x1="1062" x2="1062" y1="134.2959" y2="1167.7915"/><line style="stroke:#94A3B8;stroke-width:0.5;stroke-dasharray:5.0,5.0;" x1="1186" x2="1186" y1="134.2959" y2="1167.7915"/><line style="stroke:#94A3B8;stroke-width:0.5;stroke-dasharray:5.0,5.0;" x1="1304" x2="1304" y1="134.2959" y2="1167.7915"/><line style="stroke:#94A3B8;stroke-width:0.5;stroke-dasharray:5.0,5.0;" x1="1419" x2="1419" y1="134.2959" y2="1167.7915"/><line style="stroke:#94A3B8;stroke-width:0.5;stroke-dasharray:5.0,5.0;" x1="1543" x2="1543" y1="134.2959" y2="1167.7915"/><text fill="#000000" font-family="Arial" font-size="14" lengthAdjust="spacing" textLength="63" x="5" y="115.2305">MCP Tool</text><text fill="#000000" font-family="Arial" font-size="14" lengthAdjust="spacing" textLength="50" x="11.5" y="131.3291">Adapter</text><ellipse cx="39.5" cy="50.5986" fill="#E2E2F0" rx="8" ry="8" style="stroke:#181818;stroke-width:0.5;"/><path d="M39.5,58.5986 L39.5,85.5986 M26.5,66.5986 L52.5,66.5986 M39.5,85.5986 L26.5,100.5986 M39.5,85.5986 L52.5,100.5986 " fill="none" style="stroke:#181818;stroke-width:0.5;"/><text fill="#000000" font-family="Arial" font-size="14" lengthAdjust="spacing" textLength="63" x="5" y="1179.9233">MCP Tool</text><text fill="#000000" font-family="Arial" font-size="14" lengthAdjust="spacing" textLength="50" x="11.5" y="1196.022">Adapter</text><ellipse cx="39.5" cy="1207.4888" fill="#E2E2F0" rx="8" ry="8" style="stroke:#181818;stroke-width:0.5;"/><path d="M39.5,1215.4888 L39.5,1242.4888 M26.5,1223.4888 L52.5,1223.4888 M39.5,1242.4888 L26.5,1257.4888 M39.5,1242.4888 L52.5,1257.4888 " fill="none" style="stroke:#181818;stroke-width:0.5;"/><rect fill="#DBEAFE" height="30.0986" rx="2.5" ry="2.5" style="stroke:#CBD5E1;stroke-width:0.5;" width="131" x="197" y="103.1973"/><text fill="#000000" font-family="Arial" font-size="14" lengthAdjust="spacing" textLength="117" x="204" y="123.3291">KnowledgeService</text><rect fill="#DBEAFE" height="30.0986" rx="2.5" ry="2.5" style="stroke:#CBD5E1;stroke-width:0.5;" width="131" x="197" y="1166.7915"/><text fill="#000000" font-family="Arial" font-size="14" lengthAdjust="spacing" textLength="117" x="204" y="1186.9233">KnowledgeService</text><rect fill="#DCFCE7" height="30.0986" rx="2.5" ry="2.5" style="stroke:#CBD5E1;stroke-width:0.5;" width="97" x="489" y="103.1973"/><text fill="#000000" font-family="Arial" font-size="14" lengthAdjust="spacing" textLength="83" x="496" y="123.3291">QueryEngine</text><rect fill="#DCFCE7" height="30.0986" rx="2.5" ry="2.5" style="stroke:#CBD5E1;stroke-width:0.5;" width="97" x="489" y="1166.7915"/><text fill="#000000" font-family="Arial" font-size="14" lengthAdjust="spacing" textLength="83" x="496" y="1186.9233">QueryEngine</text><rect fill="#DCFCE7" height="30.0986" rx="2.5" ry="2.5" style="stroke:#CBD5E1;stroke-width:0.5;" width="117" x="754" y="103.1973"/><text fill="#000000" font-family="Arial" font-size="14" lengthAdjust="spacing" textLength="103" x="761" y="123.3291">QueryProcessor</text><rect fill="#DCFCE7" height="30.0986" rx="2.5" ry="2.5" style="stroke:#CBD5E1;stroke-width:0.5;" width="117" x="754" y="1166.7915"/><text fill="#000000" font-family="Arial" font-size="14" lengthAdjust="spacing" textLength="103" x="761" y="1186.9233">QueryProcessor</text><rect fill="#DCFCE7" height="30.0986" rx="2.5" ry="2.5" style="stroke:#CBD5E1;stroke-width:0.5;" width="113" x="881" y="103.1973"/><text fill="#000000" font-family="Arial" font-size="14" lengthAdjust="spacing" textLength="99" x="888" y="123.3291">DenseRetriever</text><rect fill="#DCFCE7" height="30.0986" rx="2.5" ry="2.5" style="stroke:#CBD5E1;stroke-width:0.5;" width="113" x="881" y="1166.7915"/><text fill="#000000" font-family="Arial" font-size="14" lengthAdjust="spacing" textLength="99" x="888" y="1186.9233">DenseRetriever</text><rect fill="#DCFCE7" height="30.0986" rx="2.5" ry="2.5" style="stroke:#CBD5E1;stroke-width:0.5;" width="117" x="1004" y="103.1973"/><text fill="#000000" font-family="Arial" font-size="14" lengthAdjust="spacing" textLength="103" x="1011" y="123.3291">SparseRetriever</text><rect fill="#DCFCE7" height="30.0986" rx="2.5" ry="2.5" style="stroke:#CBD5E1;stroke-width:0.5;" width="117" x="1004" y="1166.7915"/><text fill="#000000" font-family="Arial" font-size="14" lengthAdjust="spacing" textLength="103" x="1011" y="1186.9233">SparseRetriever</text><rect fill="#DCFCE7" height="30.0986" rx="2.5" ry="2.5" style="stroke:#CBD5E1;stroke-width:0.5;" width="110" x="1131" y="103.1973"/><text fill="#000000" font-family="Arial" font-size="14" lengthAdjust="spacing" textLength="96" x="1138" y="123.3291">FusionStrategy</text><rect fill="#DCFCE7" height="30.0986" rx="2.5" ry="2.5" style="stroke:#CBD5E1;stroke-width:0.5;" width="110" x="1131" y="1166.7915"/><text fill="#000000" font-family="Arial" font-size="14" lengthAdjust="spacing" textLength="96" x="1138" y="1186.9233">FusionStrategy</text><rect fill="#DCFCE7" height="30.0986" rx="2.5" ry="2.5" style="stroke:#CBD5E1;stroke-width:0.5;" width="106" x="1251" y="103.1973"/><text fill="#000000" font-family="Arial" font-size="14" lengthAdjust="spacing" textLength="92" x="1258" y="123.3291">MetadataFilter</text><rect fill="#DCFCE7" height="30.0986" rx="2.5" ry="2.5" style="stroke:#CBD5E1;stroke-width:0.5;" width="106" x="1251" y="1166.7915"/><text fill="#000000" font-family="Arial" font-size="14" lengthAdjust="spacing" textLength="92" x="1258" y="1186.9233">MetadataFilter</text><rect fill="#DCFCE7" height="30.0986" rx="2.5" ry="2.5" style="stroke:#CBD5E1;stroke-width:0.5;" width="105" x="1367" y="103.1973"/><text fill="#000000" font-family="Arial" font-size="14" lengthAdjust="spacing" textLength="91" x="1374" y="123.3291">BaseReranker</text><rect fill="#DCFCE7" height="30.0986" rx="2.5" ry="2.5" style="stroke:#CBD5E1;stroke-width:0.5;" width="105" x="1367" y="1166.7915"/><text fill="#000000" font-family="Arial" font-size="14" lengthAdjust="spacing" textLength="91" x="1374" y="1186.9233">BaseReranker</text><rect fill="#DBEAFE" height="30.0986" rx="2.5" ry="2.5" style="stroke:#CBD5E1;stroke-width:0.5;" width="122" x="1482" y="103.1973"/><text fill="#000000" font-family="Arial" font-size="14" lengthAdjust="spacing" textLength="108" x="1489" y="123.3291">ResponseBuilder</text><rect fill="#DBEAFE" height="30.0986" rx="2.5" ry="2.5" style="stroke:#CBD5E1;stroke-width:0.5;" width="122" x="1482" y="1166.7915"/><text fill="#000000" font-family="Arial" font-size="14" lengthAdjust="spacing" textLength="108" x="1489" y="1186.9233">ResponseBuilder</text><rect fill="#F8FAFC" height="927.6494" style="stroke:#94A3B8;stroke-width:1.0;" width="10" x="257.5" y="165.2446"/><rect fill="#F8FAFC" height="717.1108" style="stroke:#94A3B8;stroke-width:1.0;" width="10" x="532.5" y="194.1934"/><rect fill="#F8FAFC" height="28.9487" style="stroke:#94A3B8;stroke-width:1.0;" width="10" x="807.5" y="223.1421"/><rect fill="#F8FAFC" height="168.5386" style="stroke:#94A3B8;stroke-width:1.0;" width="10" x="932.5" y="304.9883"/><rect fill="#F8FAFC" height="153.5898" style="stroke:#94A3B8;stroke-width:1.0;" width="10" x="1057.5" y="517.1245"/><rect fill="#F8FAFC" height="28.9487" style="stroke:#94A3B8;stroke-width:1.0;" width="10" x="1181" y="706.6631"/><rect fill="#F8FAFC" height="28.9487" style="stroke:#94A3B8;stroke-width:1.0;" width="10" x="1299" y="764.5605"/><rect fill="#F8FAFC" height="28.9487" style="stroke:#94A3B8;stroke-width:1.0;" width="10" x="1414.5" y="846.4067"/><rect fill="#F8FAFC" height="123.6924" style="stroke:#94A3B8;stroke-width:1.0;" width="10" x="1538" y="940.2529"/><polygon fill="#334155" points="245.5,161.2446,255.5,165.2446,245.5,169.2446,249.5,165.2446" style="stroke:#334155;stroke-width:1.0;"/><line style="stroke:#334155;stroke-width:1.0;" x1="39.5" x2="251.5" y1="165.2446" y2="165.2446"/><text fill="#000000" font-family="Arial" font-size="13" lengthAdjust="spacing" textLength="195" x="46.5" y="160.4897">Q1 query(request: QueryRequest)</text><polygon fill="#334155" points="520.5,190.1934,530.5,194.1934,520.5,198.1934,524.5,194.1934" style="stroke:#334155;stroke-width:1.0;"/><line style="stroke:#334155;stroke-width:1.0;" x1="267.5" x2="526.5" y1="194.1934" y2="194.1934"/><text fill="#000000" font-family="Arial" font-size="13" lengthAdjust="spacing" textLength="246" x="274.5" y="189.4385">Q1a search(request: QueryRequest, trace)</text><polygon fill="#334155" points="795.5,219.1421,805.5,223.1421,795.5,227.1421,799.5,223.1421" style="stroke:#334155;stroke-width:1.0;"/><line style="stroke:#334155;stroke-width:1.0;" x1="542.5" x2="801.5" y1="223.1421" y2="223.1421"/><text fill="#000000" font-family="Arial" font-size="13" lengthAdjust="spacing" textLength="246" x="549.5" y="218.3872">Q2 process(request: QueryRequest, trace)</text><polygon fill="#334155" points="553.5,248.0908,543.5,252.0908,553.5,256.0908,549.5,252.0908" style="stroke:#334155;stroke-width:1.0;"/><line style="stroke:#334155;stroke-width:1.0;stroke-dasharray:2.0,2.0;" x1="547.5" x2="811.5" y1="252.0908" y2="252.0908"/><text fill="#000000" font-family="Arial" font-size="13" lengthAdjust="spacing" textLength="165" x="559.5" y="247.3359">processed: ProcessedQuery</text><path d="M479,267.0908 L544,267.0908 L544,274.0396 L534,284.0396 L479,284.0396 L479,267.0908 " fill="#EEEEEE" style="stroke:#000000;stroke-width:1.5;"/><rect fill="none" height="411.6235" style="stroke:#000000;stroke-width:1.5;" width="978" x="479" y="267.0908"/><text fill="#000000" font-family="Arial" font-size="13" font-weight="bold" lengthAdjust="spacing" textLength="20" x="494" y="280.2847">par</text><text fill="#000000" font-family="Arial" font-size="11" font-weight="bold" lengthAdjust="spacing" textLength="89" x="559" y="279.4087">[Q3 dense route]</text><polygon fill="#334155" points="920.5,300.9883,930.5,304.9883,920.5,308.9883,924.5,304.9883" style="stroke:#334155;stroke-width:1.0;"/><line style="stroke:#334155;stroke-width:1.0;" x1="542.5" x2="926.5" y1="304.9883" y2="304.9883"/><text fill="#000000" font-family="Arial" font-size="13" lengthAdjust="spacing" textLength="274" x="549.5" y="300.2334">retrieve(query: str, top_k: int, filters: dict, trace)</text><path d="M947,317.9883 L947,446.9883 L1346,446.9883 L1346,327.9883 L1336,317.9883 L947,317.9883 " fill="#FEFFDD" style="stroke:#181818;stroke-width:0.5;"/><path d="M1336,317.9883 L1336,327.9883 L1346,327.9883 L1336,317.9883 " fill="#FEFFDD" style="stroke:#181818;stroke-width:0.5;"/><text fill="#000000" font-family="Arial" font-size="13" lengthAdjust="spacing" textLength="81" x="953" y="335.1821">Input from 02:</text><text fill="#000000" font-family="Arial" font-size="13" lengthAdjust="spacing" textLength="378" x="953" y="350.1309">QueryEngine &#20174; ProcessedQuery.standalone_query &#21462;&#20986; query&#65292;</text><text fill="#000000" font-family="Arial" font-size="13" lengthAdjust="spacing" textLength="335" x="953" y="365.0796">&#20877;&#35843;&#29992; retriever &#25509;&#21475;&#65288;DEV_SPEC_INTERFACES &#167;6.2&#65289;</text><text fill="#000000" font-family="Arial" font-size="13" lengthAdjust="spacing" textLength="4" x="953" y="380.0283">&#160;</text><text fill="#000000" font-family="Arial" font-size="13" lengthAdjust="spacing" textLength="76" x="953" y="394.9771">Internal data:</text><text fill="#000000" font-family="Arial" font-size="13" lengthAdjust="spacing" textLength="210" x="953" y="409.9258">embedding.embed([query]) -&gt; vector</text><text fill="#000000" font-family="Arial" font-size="13" lengthAdjust="spacing" textLength="230" x="953" y="424.8745">vector_store.query(...) -&gt; list[SearchHit]</text><text fill="#000000" font-family="Arial" font-size="13" lengthAdjust="spacing" textLength="322" x="953" y="439.8232">maps SearchHit -&gt; RetrievalCandidate(source="dense")</text><polygon fill="#334155" points="553.5,469.5269,543.5,473.5269,553.5,477.5269,549.5,473.5269" style="stroke:#334155;stroke-width:1.0;"/><line style="stroke:#334155;stroke-width:1.0;stroke-dasharray:2.0,2.0;" x1="547.5" x2="936.5" y1="473.5269" y2="473.5269"/><text fill="#000000" font-family="Arial" font-size="13" lengthAdjust="spacing" textLength="247" x="559.5" y="468.772">dense_candidates: list[RetrievalCandidate]</text><line style="stroke:#000000;stroke-width:1.0;stroke-dasharray:2.0,2.0;" x1="479" x2="1457" y1="482.5269" y2="482.5269"/><text fill="#000000" font-family="Arial" font-size="11" font-weight="bold" lengthAdjust="spacing" textLength="92" x="484" y="492.8447">[Q4 sparse route]</text><polygon fill="#334155" points="1045.5,513.1245,1055.5,517.1245,1045.5,521.1245,1049.5,517.1245" style="stroke:#334155;stroke-width:1.0;"/><line style="stroke:#334155;stroke-width:1.0;" x1="542.5" x2="1051.5" y1="517.1245" y2="517.1245"/><text fill="#000000" font-family="Arial" font-size="13" lengthAdjust="spacing" textLength="322" x="549.5" y="512.3696">retrieve(keywords: list[str], top_k: int, filters: dict, trace)</text><path d="M1072,530.1245 L1072,644.1245 L1447,644.1245 L1447,540.1245 L1437,530.1245 L1072,530.1245 " fill="#FEFFDD" style="stroke:#181818;stroke-width:0.5;"/><path d="M1437,530.1245 L1437,540.1245 L1447,540.1245 L1437,530.1245 " fill="#FEFFDD" style="stroke:#181818;stroke-width:0.5;"/><text fill="#000000" font-family="Arial" font-size="13" lengthAdjust="spacing" textLength="81" x="1078" y="547.3184">Input from 02:</text><text fill="#000000" font-family="Arial" font-size="13" lengthAdjust="spacing" textLength="354" x="1078" y="562.2671">QueryEngine &#20174; ProcessedQuery.keywords &#21462;&#20986; keywords&#65292;</text><text fill="#000000" font-family="Arial" font-size="13" lengthAdjust="spacing" textLength="335" x="1078" y="577.2158">&#20877;&#35843;&#29992; retriever &#25509;&#21475;&#65288;DEV_SPEC_INTERFACES &#167;6.2&#65289;</text><text fill="#000000" font-family="Arial" font-size="13" lengthAdjust="spacing" textLength="4" x="1078" y="592.1646">&#160;</text><text fill="#000000" font-family="Arial" font-size="13" lengthAdjust="spacing" textLength="76" x="1078" y="607.1133">Internal data:</text><text fill="#000000" font-family="Arial" font-size="13" lengthAdjust="spacing" textLength="226" x="1078" y="622.062">bm25_store.query(...) -&gt; list[SearchHit]</text><text fill="#000000" font-family="Arial" font-size="13" lengthAdjust="spacing" textLength="326" x="1078" y="637.0107">maps SearchHit -&gt; RetrievalCandidate(source="sparse")</text><polygon fill="#334155" points="553.5,666.7144,543.5,670.7144,553.5,674.7144,549.5,670.7144" style="stroke:#334155;stroke-width:1.0;"/><line style="stroke:#334155;stroke-width:1.0;stroke-dasharray:2.0,2.0;" x1="547.5" x2="1061.5" y1="670.7144" y2="670.7144"/><text fill="#000000" font-family="Arial" font-size="13" lengthAdjust="spacing" textLength="251" x="559.5" y="665.9595">sparse_candidates: list[RetrievalCandidate]</text><polygon fill="#334155" points="1169,702.6631,1179,706.6631,1169,710.6631,1173,706.6631" style="stroke:#334155;stroke-width:1.0;"/><line style="stroke:#334155;stroke-width:1.0;" x1="542.5" x2="1175" y1="706.6631" y2="706.6631"/><text fill="#000000" font-family="Arial" font-size="13" lengthAdjust="spacing" textLength="290" x="549.5" y="701.9082">Q5 fuse(list[list[RetrievalCandidate]], top_k, trace)</text><polygon fill="#334155" points="553.5,731.6118,543.5,735.6118,553.5,739.6118,549.5,735.6118" style="stroke:#334155;stroke-width:1.0;"/><line style="stroke:#334155;stroke-width:1.0;stroke-dasharray:2.0,2.0;" x1="547.5" x2="1185" y1="735.6118" y2="735.6118"/><text fill="#000000" font-family="Arial" font-size="13" lengthAdjust="spacing" textLength="205" x="559.5" y="730.8569">candidates: list[RetrievalCandidate]</text><polygon fill="#334155" points="1287,760.5605,1297,764.5605,1287,768.5605,1291,764.5605" style="stroke:#334155;stroke-width:1.0;"/><line style="stroke:#334155;stroke-width:1.0;" x1="542.5" x2="1293" y1="764.5605" y2="764.5605"/><text fill="#000000" font-family="Arial" font-size="13" lengthAdjust="spacing" textLength="342" x="549.5" y="759.8057">Q6 apply(candidates: list[RetrievalCandidate], filters, trace)</text><polygon fill="#334155" points="553.5,789.5093,543.5,793.5093,553.5,797.5093,549.5,793.5093" style="stroke:#334155;stroke-width:1.0;"/><line style="stroke:#334155;stroke-width:1.0;stroke-dasharray:2.0,2.0;" x1="547.5" x2="1303" y1="793.5093" y2="793.5093"/><text fill="#000000" font-family="Arial" font-size="13" lengthAdjust="spacing" textLength="205" x="559.5" y="788.7544">candidates: list[RetrievalCandidate]</text><path d="M479,808.5093 L544,808.5093 L544,815.458 L534,825.458 L479,825.458 L479,808.5093 " fill="#EEEEEE" style="stroke:#000000;stroke-width:1.5;"/><rect fill="none" height="74.8462" style="stroke:#000000;stroke-width:1.5;" width="1003" x="479" y="808.5093"/><text fill="#000000" font-family="Arial" font-size="13" font-weight="bold" lengthAdjust="spacing" textLength="20" x="494" y="821.7031">opt</text><text fill="#000000" font-family="Arial" font-size="11" font-weight="bold" lengthAdjust="spacing" textLength="114" x="559" y="820.8271">[Q7 reranker enabled]</text><polygon fill="#334155" points="1402.5,842.4067,1412.5,846.4067,1402.5,850.4067,1406.5,846.4067" style="stroke:#334155;stroke-width:1.0;"/><line style="stroke:#334155;stroke-width:1.0;" x1="542.5" x2="1408.5" y1="846.4067" y2="846.4067"/><text fill="#000000" font-family="Arial" font-size="13" lengthAdjust="spacing" textLength="366" x="549.5" y="841.6519">rerank(query, candidates: list[RetrievalCandidate], top_k, trace)</text><polygon fill="#334155" points="553.5,871.3555,543.5,875.3555,553.5,879.3555,549.5,875.3555" style="stroke:#334155;stroke-width:1.0;"/><line style="stroke:#334155;stroke-width:1.0;stroke-dasharray:2.0,2.0;" x1="547.5" x2="1418.5" y1="875.3555" y2="875.3555"/><text fill="#000000" font-family="Arial" font-size="13" lengthAdjust="spacing" textLength="205" x="559.5" y="870.6006">candidates: list[RetrievalCandidate]</text><polygon fill="#334155" points="278.5,907.3042,268.5,911.3042,278.5,915.3042,274.5,911.3042" style="stroke:#334155;stroke-width:1.0;"/><line style="stroke:#334155;stroke-width:1.0;stroke-dasharray:2.0,2.0;" x1="272.5" x2="536.5" y1="911.3042" y2="911.3042"/><text fill="#000000" font-family="Arial" font-size="13" lengthAdjust="spacing" textLength="205" x="284.5" y="906.5493">candidates: list[RetrievalCandidate]</text><polygon fill="#334155" points="1526,936.2529,1536,940.2529,1526,944.2529,1530,940.2529" style="stroke:#334155;stroke-width:1.0;"/><line style="stroke:#334155;stroke-width:1.0;" x1="267.5" x2="1532" y1="940.2529" y2="940.2529"/><text fill="#000000" font-family="Arial" font-size="13" lengthAdjust="spacing" textLength="440" x="274.5" y="935.498">Q8 build(request: QueryRequest, candidates: list[RetrievalCandidate], trace)</text><path d="M1553,953.2529 L1553,1037.2529 L1807,1037.2529 L1807,963.2529 L1797,953.2529 L1553,953.2529 " fill="#FEFFDD" style="stroke:#181818;stroke-width:0.5;"/><path d="M1797,953.2529 L1797,963.2529 L1807,963.2529 L1797,953.2529 " fill="#FEFFDD" style="stroke:#181818;stroke-width:0.5;"/><text fill="#000000" font-family="Arial" font-size="13" lengthAdjust="spacing" textLength="81" x="1559" y="970.4468">Input from 02:</text><text fill="#000000" font-family="Arial" font-size="13" lengthAdjust="spacing" textLength="233" x="1559" y="985.3955">QueryRequest + list[RetrievalCandidate]</text><text fill="#000000" font-family="Arial" font-size="13" lengthAdjust="spacing" textLength="4" x="1559" y="1000.3442">&#160;</text><text fill="#000000" font-family="Arial" font-size="13" lengthAdjust="spacing" textLength="91" x="1559" y="1015.293">Output from 02:</text><text fill="#000000" font-family="Arial" font-size="13" lengthAdjust="spacing" textLength="93" x="1559" y="1030.2417">QueryResponse</text><polygon fill="#334155" points="278.5,1059.9453,268.5,1063.9453,278.5,1067.9453,274.5,1063.9453" style="stroke:#334155;stroke-width:1.0;"/><line style="stroke:#334155;stroke-width:1.0;stroke-dasharray:2.0,2.0;" x1="272.5" x2="1542" y1="1063.9453" y2="1063.9453"/><text fill="#000000" font-family="Arial" font-size="13" lengthAdjust="spacing" textLength="154" x="284.5" y="1059.1904">response: QueryResponse</text><polygon fill="#334155" points="50.5,1088.894,40.5,1092.894,50.5,1096.894,46.5,1092.894" style="stroke:#334155;stroke-width:1.0;"/><line style="stroke:#334155;stroke-width:1.0;stroke-dasharray:2.0,2.0;" x1="44.5" x2="261.5" y1="1092.894" y2="1092.894"/><text fill="#000000" font-family="Arial" font-size="13" lengthAdjust="spacing" textLength="154" x="56.5" y="1088.1392">response: QueryResponse</text><line style="stroke:#334155;stroke-width:1.0;" x1="39.5" x2="81.5" y1="1136.7915" y2="1136.7915"/><line style="stroke:#334155;stroke-width:1.0;" x1="81.5" x2="81.5" y1="1136.7915" y2="1149.7915"/><line style="stroke:#334155;stroke-width:1.0;" x1="40.5" x2="81.5" y1="1149.7915" y2="1149.7915"/><polygon fill="#334155" points="50.5,1145.7915,40.5,1149.7915,50.5,1153.7915,46.5,1149.7915" style="stroke:#334155;stroke-width:1.0;"/><text fill="#000000" font-family="Arial" font-size="13" lengthAdjust="spacing" textLength="209" x="46.5" y="1117.0879">Q9 convert QueryResponse to MCP</text><text fill="#000000" font-family="Arial" font-size="13" lengthAdjust="spacing" textLength="162" x="46.5" y="1132.0366">content + structuredContent</text><!--SRC=[jLPBRnit4BxlhvWg5mLDXFYLE0kqW9ve43kLj6alYI7GkoEPy8hSa5mhHj5JWJw0DhaK_GD5qHvxRdtgRwdRtlmNEkG-if9NW6mWbmN9_UQRuSp78Jz859lD6SJiNAO6z1mD4ymptCG83tPXbA8wXt4g39yZT6KSisEfcE5I-F3PuG5eV9MY214Mt9n0n0o3K0gZM6Yqv-bJBXAcs1pq2OlaWeiPJ5ciiV8dmYbBOpCWgsUCd3JQYhEuKK6qbP8ByYqLtDdPsTtQswiI5m5yuG4Sy2aUS84TgI9KkSdZtVPEPx_wbuMdCoLJ4UM8mVwWFUWIOiYKuI5Fc31B5DrERw-_jG9OozAHh-kjxOyrLbzw7gMC5Xg7tI4ybp9-ATeHImog1Z3jLhpadNTeF1Lo4MCqmm3L6G_HmPu6SAVNwRS7_MMmgsDVp6Zt3ZVg4wuxwFOVrU26IeQejSmyZuRrq1uAZMCqYkDP7cHlN0yDQBQA3TPW1wacSGMa88EpSmVDbkhXXoHOgxe1ZujKPSDwU8VPE1GJfpcucDJ3nwWJITlif3oESejyNERPiwM1-n_RtFimse9NDeTDPNMfZPyTeN4skskBpCzeQuJsFB8WEwg5jMCaPQR2athBUs3F55O8HkIQJ2t1q19iGvBLRME2eKUMzui8SckCV1WMGqVWHLYriHc2qGwTMqeCa9GDahIpI4W0FgYypasN21-qKUHS9fDJ7xYWGAQkGDg7Y8VluW8elVJ6D1EIHehFJWp8QRO4y4GarAQcIixXmRRlbYhIXh__VBCIV4jJGujOB0LEN3nm-VQdos_-oAfqTV6zuxZy-eV_Vl_gtnz_AuDNyC-RNoxV_dnryMsl__aa6FQxaoVFdlV7WtQt7y1VlpviRLzTVEVbKT5-18jT_ykYmlanHX7rkvORDLyuVqTtRPREq9vq1yk64qqVR6N2QRLQ3XLpRLu4JXAVS7Fau7EMqCafrYmgFrGixj8sEVd7ffQf2l6ZXYjGmoOMHUJIIKEgK5bn1vY4XI4LnFcyJccTLqH0jK3guJ3Q1UrEzeeAWYKLdEBvWhfXmKvgEBgX78BhSWXkAuSYca86nVpzAU5ulhttVWgS9N-rma6bmXdY5YMc_19bqM3o1amDPG-cgSQc8rd7L9JtUiV9UBoShenoe_0gmUKqHN1PkwVW7W9BalYykGbVARkQADqFB-UzVPGPZISJ0wD79AVyea71ZkdUBazBUGFvEIRhc_TWisqifxfoQWfUMYjTt6mpIueewKfT55VUJHDZBwxivYkkKghTFXpRoRgxQyDSh5Gov_UMUqUnMjC-gaxXm_Mx8UYdgQatpbuCNdaYYqsM-L8vn5-ngAIe2D7bYUpS4sCZI_kiA1uakTNeiNsIKoCposOa7Q37vajX7-mex8QfEQUXIHNIwzIj_Gy0]--></g></svg>